<?xml version="1.0" encoding="iso-8859-1"?>
<!-- Uploaded to: SVG Repo, www.svgrepo.com, Generator: SVG Repo Mixer Tools -->
<svg height="800px" width="800px" version="1.1" id="Layer_1" xmlns="http://www.w3.org/2000/svg" xmlns:xlink="http://www.w3.org/1999/xlink" 
	 viewBox="0 0 512 512" xml:space="preserve">
<path style="fill:#9ED368;" d="M512,256.006C512,397.402,397.394,512.004,256.004,512C114.606,512.004,0,397.402,0,256.006
	C-0.007,114.61,114.606,0,256.004,0C397.394,0,512,114.614,512,256.006z"/>
<path style="fill:#8BC052;" d="M501.858,327.324c-0.433-0.579-0.923-1.072-1.504-1.504c-0.435-0.586-66.143-66.294-66.73-66.73
	c-1.359-1.829-3.435-3.091-5.892-3.091H213.099c-0.388-0.401-31.023-30.989-31.551-31.483c-7.847-8.321-20.506-13.316-30.081-13.316
	h-4.411c-0.228-0.219-56.311-56.207-56.897-56.643c-1.361-1.827-3.435-3.09-5.892-3.09c-4.128,0-7.468,3.34-7.468,7.467v194.133
	c0,2.457,1.263,4.531,3.091,5.892c0.437,0.586,151.073,151.222,151.659,151.659c0.06,0.081,0.146,0.131,0.208,0.208
	c7.984,0.75,16.065,1.174,24.246,1.174C372.634,512.002,470.969,433.996,501.858,327.324z"/>
<path style="fill:#F4F6F9;" d="M427.733,256H186.736c1.319-4.15,2.064-9.058,2.064-14.933c0-17.952-22.473-29.867-37.333-29.867
	h-44.8c-5.466,0-10.523,1.582-14.933,4.153v-56.419c0-4.127-3.34-7.467-7.467-7.467s-7.467,3.34-7.467,7.467v194.133
	c0,4.127,3.34,7.467,7.467,7.467s7.467-3.34,7.467-7.467v-37.333h328.533V345.6c0,4.127,3.34,7.467,7.467,7.467
	s7.467-3.34,7.467-7.467v-82.133C435.2,259.34,431.86,256,427.733,256z M106.667,226.133h44.8c9.049,0,22.4,7.868,22.4,14.933
	C173.867,256,169.725,256,166.4,256h-59.733c-8.233,0-14.933-6.701-14.933-14.933C91.733,232.834,98.434,226.133,106.667,226.133z
	 M91.733,300.8v-29.867h328.533V300.8H91.733z"/>
</svg>